<svg xmlns="http://www.w3.org/2000/svg" version="1.1" xmlns:xlink="http://www.w3.org/1999/xlink" xmlns:svgjs="http://svgjs.dev/svgjs" width="90" height="30" viewBox="0 0 2000 404"><g transform="matrix(1,0,0,1,-1.2121085083607568,1.1734584699286756)"><svg viewBox="0 0 396 80" data-background-color="#ffffff" preserveAspectRatio="xMidYMid meet" height="404" width="2000" xmlns="http://www.w3.org/2000/svg" xmlns:xlink="http://www.w3.org/1999/xlink"><g id="tight-bounds" transform="matrix(1,0,0,1,0.2399974846554187,-0.2323680138472639)"><svg viewBox="0 0 395.52 80.46473388356776" height="80.46473388356776" width="395.52"><g><svg viewBox="0 0 529.2476811024067 107.67034238066466" height="80.46473388356776" width="395.52"><g transform="matrix(1,0,0,1,133.72768110240662,14.880633425981877)"><svg viewBox="0 0 395.52 77.90907552870091" height="77.90907552870091" width="395.52"><g id="textblocktransform"><svg viewBox="0 0 395.52 77.90907552870091" height="77.90907552870091" width="395.52" id="textblock"><g><svg viewBox="0 0 395.52 77.90907552870091" height="77.90907552870091" width="395.52"><g transform="matrix(1,0,0,1,0,0)"><svg width="395.52" viewBox="1.2000000476837158 -38.849998474121094 248.22999572753906 48.89999771118164" height="77.90907552870091" data-palette-color="#35185a"><path d="M25.2-34.25L25.2-34.25 23.25-29.8Q21.2-30.55 19.18-31 17.15-31.45 15.3-31.45L15.3-31.45Q12.15-31.45 10.28-30.15 8.4-28.85 8.4-26.85L8.4-26.85Q8.4-25.15 9.75-24.13 11.1-23.1 13.1-22.28 15.1-21.45 17.45-20.63 19.8-19.8 21.8-18.5 23.8-17.2 25.15-15.23 26.5-13.25 26.5-10.15L26.5-10.15Q26.5-7.75 25.63-5.83 24.75-3.9 23.03-2.5 21.3-1.1 18.73-0.35 16.15 0.4 12.7 0.4L12.7 0.4Q10.5 0.4 8.72 0.1 6.95-0.2 5.53-0.68 4.1-1.15 3.03-1.7 1.95-2.25 1.2-2.7L1.2-2.7 3.6-7.45Q5.6-6.3 8.05-5.6 10.5-4.9 12.5-4.9L12.5-4.9Q13.5-4.9 14.98-5.15 16.45-5.4 17.8-6.03 19.15-6.65 20.13-7.7 21.1-8.75 21.1-10.35L21.1-10.35Q21.1-11.8 20.33-12.83 19.55-13.85 18.28-14.63 17-15.4 15.38-16.03 13.75-16.65 12.05-17.32 10.35-18 8.72-18.75 7.1-19.5 5.83-20.58 4.55-21.65 3.78-23.08 3-24.5 3-26.5L3-26.5Q3-28.35 3.75-30.15 4.5-31.95 6-33.35 7.5-34.75 9.73-35.6 11.95-36.45 14.9-36.45L14.9-36.45Q16.7-36.45 18.43-36.15 20.15-35.85 21.55-35.48 22.95-35.1 23.93-34.75 24.9-34.4 25.2-34.25ZM50.3-20.9L50.3 0.45 46.7 0.45 46.2-5.35Q45.05-2.8 42.97-1.15 40.9 0.5 37.7 0.5L37.7 0.5Q34.5 0.5 32.62-1.23 30.75-2.95 30.65-5.75L30.65-5.75 30.65-20.9 34.9-20.9 34.9-7.65Q35-6.1 36.02-5 37.05-3.9 39.2-3.75L39.2-3.75Q40.7-3.75 41.95-4.28 43.2-4.8 44.1-5.7 45-6.6 45.5-7.85 46-9.1 46-10.6L46-10.6 46-20.9 50.3-20.9ZM56.3 0L56.3-20.9 60.05-20.9Q60.15-19.35 60.22-18.07 60.3-16.8 60.4-15.55L60.4-15.55Q61.55-18.25 63.42-19.83 65.3-21.4 68.45-21.45L68.45-21.45Q71.5-21.45 73.34-19.9 75.2-18.35 75.5-15.85L75.5-15.85Q76.75-18.4 78.57-19.9 80.4-21.4 83.5-21.45L83.5-21.45Q86.75-21.45 88.62-19.7 90.5-17.95 90.59-15.2L90.59-15.2 90.59 0 86.3 0 86.3-13.25Q86.19-14.85 85.22-15.98 84.25-17.1 82.05-17.2L82.05-17.2Q79.05-17.2 77.34-15.28 75.65-13.35 75.55-10.35L75.55-10.35 75.55 0 71.3 0 71.3-13.25Q71.2-14.85 70.17-15.98 69.15-17.1 67.05-17.2L67.05-17.2Q65.55-17.2 64.34-16.68 63.15-16.15 62.3-15.25 61.45-14.35 61-13.1 60.55-11.85 60.55-10.35L60.55-10.35 60.55 0 56.3 0ZM96.39 0L96.39-20.9 100.14-20.9Q100.24-19.35 100.32-18.07 100.39-16.8 100.49-15.55L100.49-15.55Q101.64-18.25 103.52-19.83 105.39-21.4 108.54-21.45L108.54-21.45Q111.59-21.45 113.44-19.9 115.29-18.35 115.59-15.85L115.59-15.85Q116.84-18.4 118.67-19.9 120.49-21.4 123.59-21.45L123.59-21.45Q126.84-21.45 128.72-19.7 130.59-17.95 130.69-15.2L130.69-15.2 130.69 0 126.39 0 126.39-13.25Q126.29-14.85 125.32-15.98 124.34-17.1 122.14-17.2L122.14-17.2Q119.14-17.2 117.44-15.28 115.74-13.35 115.64-10.35L115.64-10.35 115.64 0 111.39 0 111.39-13.25Q111.29-14.85 110.27-15.98 109.24-17.1 107.14-17.2L107.14-17.2Q105.64-17.2 104.44-16.68 103.24-16.15 102.39-15.25 101.54-14.35 101.09-13.1 100.64-11.85 100.64-10.35L100.64-10.35 100.64 0 96.39 0ZM135.94-28.9L135.94-28.9Q135.94-30.1 136.81-30.9 137.69-31.7 138.69-31.7L138.69-31.7Q139.69-31.7 140.54-30.9 141.39-30.1 141.39-28.9L141.39-28.9Q141.39-27.7 140.54-26.93 139.69-26.15 138.69-26.15L138.69-26.15Q137.69-26.15 136.81-26.93 135.94-27.7 135.94-28.9ZM140.74-20.9L140.74 0 136.49 0 136.49-20.9 140.74-20.9ZM148.49-16.75L144.94-16.75 144.94-20.95 148.49-20.95 148.49-25.8Q148.49-32.35 151.56-35.52 154.64-38.7 160.29-38.85L160.29-38.85 160.29-34.75Q156.39-34.55 154.59-32.25 152.79-29.95 152.79-25.7L152.79-25.7 152.79-20.95 159.39-20.95 159.39-16.75 152.79-16.75 152.79 0 148.49 0 148.49-16.75ZM183.49-20.9L168.59 10.05 164.28 10.05Q164.99 8.6 165.61 7.28 166.24 5.95 166.86 4.58 167.49 3.2 168.14 1.73 168.78 0.25 169.59-1.45L169.59-1.45Q168.44-3.7 167.24-6.18 166.03-8.65 164.84-11.15 163.64-13.65 162.46-16.15 161.28-18.65 160.14-20.9L160.14-20.9 164.78-20.9Q166.59-17.35 167.76-14.9 168.94-12.45 169.71-10.68 170.49-8.9 170.96-7.65 171.44-6.4 171.78-5.35L171.78-5.35Q172.19-6.4 172.66-7.65 173.14-8.9 173.91-10.68 174.69-12.45 175.86-14.9 177.03-17.35 178.84-20.9L178.84-20.9 183.49-20.9ZM187.23 0L187.23-37.85Q187.68-37.15 189.11-35.18 190.53-33.2 192.41-30.6 194.28-28 196.38-25.08 198.48-22.15 200.33-19.58 202.18-17 203.56-15.1 204.93-13.2 205.38-12.6L205.38-12.6Q205.53-12.85 206.33-13.95 207.13-15.05 208.31-16.7 209.48-18.35 210.98-20.43 212.48-22.5 214.06-24.68 215.63-26.85 217.16-29 218.68-31.15 219.98-32.93 221.28-34.7 222.21-36.02 223.13-37.35 223.53-37.85L223.53-37.85 223.53 0 217.73 0 217.73-20.3Q217.73-20.7 217.81-21.15 217.88-21.6 217.88-21.8L217.88-21.8Q217.43-21.2 216.46-19.78 215.48-18.35 214.21-16.53 212.93-14.7 211.53-12.68 210.13-10.65 208.88-8.85 207.63-7.05 206.68-5.68 205.73-4.3 205.38-3.75L205.38-3.75Q205.03-4.2 204.01-5.63 202.98-7.05 201.61-8.95 200.23-10.85 198.71-13 197.18-15.15 195.88-17 194.58-18.85 193.63-20.18 192.68-21.5 192.53-21.8L192.53-21.8Q192.53-21.6 192.61-21.15 192.68-20.7 192.68-20.3L192.68-20.3 192.68 0 187.23 0ZM244.48-5.55L247.68-2.45Q246.18-1.1 244.03-0.3 241.88 0.5 239.63 0.5L239.63 0.5Q237.33 0.5 235.31-0.38 233.28-1.25 231.78-2.73 230.28-4.2 229.41-6.2 228.53-8.2 228.53-10.45L228.53-10.45Q228.53-12.7 229.41-14.7 230.28-16.7 231.78-18.2 233.28-19.7 235.26-20.58 237.23-21.45 239.48-21.45L239.48-21.45Q243.03-21.45 245.66-19.33 248.28-17.2 249.43-13.75L249.43-13.75Q247.88-13.2 245.88-12.4 243.88-11.6 241.73-10.73 239.58-9.85 237.43-9 235.28-8.15 233.43-7.45L233.43-7.45Q234.28-5.75 235.91-4.73 237.53-3.7 239.53-3.7L239.53-3.7Q240.88-3.7 242.26-4.2 243.63-4.7 244.48-5.55L244.48-5.55ZM244.08-14.75L244.08-14.75Q243.48-16 242.18-16.63 240.88-17.25 239.53-17.25L239.53-17.25Q238.08-17.25 236.86-16.7 235.63-16.15 234.73-15.23 233.83-14.3 233.31-13.1 232.78-11.9 232.78-10.65L232.78-10.65Q232.78-10.4 232.81-10.3 232.83-10.2 232.83-10.15L232.83-10.15Q234.13-10.65 235.66-11.28 237.18-11.9 238.68-12.53 240.18-13.15 241.58-13.73 242.98-14.3 244.08-14.75Z" opacity="1" transform="matrix(1,0,0,1,0,0)" fill="#35185a" class="wordmark-text-0" data-fill-palette-color="primary" id="text-0"></path></svg></g></svg></g></svg></g></svg></g><g><svg viewBox="0 0 115.33521818789302 107.67034238066466" height="107.67034238066466" width="115.33521818789302"><g><svg xmlns="http://www.w3.org/2000/svg" xmlns:xlink="http://www.w3.org/1999/xlink" version="1.1" x="0" y="0" viewBox="2.0022120475769043 4.526334285736084 95.84314727783203 89.47366333007812" enable-background="new 0 0 100 100" xml:space="preserve" height="107.67034238066466" width="115.33521818789302" class="icon-icon-0" data-fill-palette-color="accent" id="icon-0"><g fill="#bb84e8" data-fill-palette-color="accent"><path fill="#bb84e8" d="M25.306 18.053c-0.267-0.854-1.171-1.329-2.024-1.063-0.854 0.264-1.332 1.17-1.07 2.024 0.343 1.122 0.904 4.365-0.613 5.874-1.351 1.343-4.513 2.253-5.617 2.49-0.874 0.188-1.432 1.049-1.245 1.923 0.164 0.76 0.835 1.282 1.583 1.282 0.111 0 0.226-0.012 0.339-0.036 0.501-0.107 4.958-1.108 7.226-3.361C27.109 23.979 25.382 18.293 25.306 18.053z" data-fill-palette-color="accent"></path><path fill="#bb84e8" d="M96.641 61.979c-0.334-0.972-1.04-3.256-1.198-4.824-0.035-0.365 0.337-1.364 0.637-2.169 0.934-2.508 2.347-6.296 0.617-10.848-1.606-4.231-4.371-7.044-6.285-8.598 1.156-0.986 2.19-2.644 1.721-5.909-1.081-7.532-1.999-8.948-8.932-13.769-0.311-0.216-1.001-0.663-1.899-1.242-2.46-1.588-6.576-4.246-8.341-5.727C69.229 5.761 62.27 3.42 58.247 5.071c-6.22 2.549-7.259 11.16-7.301 11.525-0.002 0.012 0.002 0.024 0 0.037-0.002 0.011-0.005 0.021-0.006 0.033-0.045 0.658-0.507 7.464-1.028 16.09-0.521-8.625-0.983-15.432-1.027-16.09-0.001-0.011-0.005-0.021-0.005-0.033-0.001-0.013 0-0.025-0.001-0.037-0.042-0.366-1.08-8.977-7.296-11.524-4.023-1.649-10.98 0.689-14.708 3.822-1.764 1.481-5.877 4.138-8.335 5.726-0.898 0.581-1.59 1.028-1.899 1.243-6.93 4.821-7.848 6.236-8.93 13.769-0.469 3.265 0.564 4.922 1.721 5.909-1.914 1.553-4.676 4.367-6.282 8.598-1.728 4.552-0.317 8.34 0.618 10.848 0.299 0.805 0.671 1.804 0.635 2.169-0.172 1.726-0.964 4.137-1.198 4.827-0.842 1.312-3.64 7.041 3.945 16.521 2.53 3.162 5.303 2.953 7.751 2.768 1.904-0.146 3.703-0.281 5.769 1.037 0.933 0.596 1.197 1.555 1.582 3.196 0.519 2.213 1.229 5.245 5.141 7.038C29.701 93.603 31.725 94 33.565 94c2.869 0 5.293-0.969 7.669-1.917l0.257-0.104c5.744-2.289 6.531-6.498 6.631-7.937 0.742-0.74 1.332-1.475 1.79-2.219 0.458 0.744 1.049 1.479 1.792 2.219 0.099 1.438 0.886 5.649 6.633 7.937l0.257 0.104C60.971 93.033 63.396 94 66.267 94c1.841 0 3.865-0.399 6.178-1.457 3.911-1.793 4.623-4.825 5.143-7.038 0.385-1.642 0.646-2.601 1.582-3.196 2.067-1.318 3.867-1.183 5.772-1.037 2.447 0.187 5.222 0.396 7.754-2.767C100.289 69.018 97.48 63.287 96.641 61.979zM59.477 8.07c2.528-1.038 8.177 0.6 11.399 3.307 1.921 1.612 6.146 4.338 8.667 5.967 0.854 0.552 1.512 0.974 1.807 1.18 6.202 4.313 6.627 4.962 7.576 11.569 0.359 2.5-0.416 2.945-1.585 3.618-0.251 0.143-0.49 0.283-0.643 0.391-1.129 0.487-7.287-0.025-8.667-0.887-0.759-0.475-1.759-0.242-2.233 0.515-0.475 0.759-0.243 1.759 0.516 2.232 1.351 0.844 5.216 1.562 8.318 1.562 0.912 0 1.754-0.065 2.45-0.205 0.163 0.071 0.331 0.125 0.506 0.141 1.466 1.047 4.474 3.602 6.08 7.831 1.296 3.41 0.23 6.268-0.625 8.565-0.444 1.191-0.812 2.235-0.818 3.231-0.141 0.143-0.257 0.312-0.339 0.508-2.711 6.53-6.048 12.522-7.396 13.314-1.81-0.21-2.02-0.979-2.33-3.052-0.286-1.915-0.768-5.119-5.064-5.119-1.118 0-2.176 0.229-3.136 0.574 0.236-0.631 0.468-1.26 0.695-1.879 0.479-1.315 0.935-2.556 1.343-3.436 0.829-1.785 1.839-2.755 3.091-2.964 2.609-0.446 5.965 2.36 7.045 3.478 0.619 0.646 1.643 0.668 2.29 0.048 0.646-0.618 0.667-1.645 0.049-2.291-0.515-0.536-5.169-5.217-9.912-4.433-2.354 0.393-4.205 2.006-5.502 4.798-0.467 1.002-0.942 2.307-1.446 3.686-0.22 0.597-0.458 1.25-0.714 1.923-1.593-1.382-3.123-1.591-4.17-1.727-0.438-0.055-0.854-0.109-0.956-0.219-0.816-0.887 0.904-3.321 2.081-4.528 2.938-1.485 6.89-3.753 7.991-6.744 3.715-0.105 11.152-2.613 12.971-7.329 0.321-0.835-0.096-1.772-0.929-2.095-0.834-0.321-1.773 0.094-2.096 0.929-1.12 2.905-6.969 5.264-10.194 5.264-0.064 0-0.139-0.033-0.208-0.056-0.092-0.059-0.188-0.109-0.291-0.148-1.773-1.2-4.638-7.948-4.901-11.27-0.142-1.765 0.391-3.074 0.903-4.339 0.321-0.789 0.624-1.535 0.748-2.348 0.296-1.921-1.121-3.193-2.259-4.216-0.58-0.522-1.183-1.063-1.429-1.557-1.088-2.175 2.032-4.018 2.164-4.095 0.774-0.445 1.043-1.432 0.602-2.207-0.441-0.778-1.431-1.051-2.209-0.606-2.055 1.17-5.422 4.424-3.455 8.357 0.522 1.044 1.394 1.826 2.162 2.518 0.126 0.114 0.277 0.249 0.43 0.392-0.879-0.17-2.187-0.623-3.067-0.929-2.443-0.852-4.751-1.656-6.41-0.833-0.691 0.343-1.186 0.923-1.431 1.679-0.851 2.615 1.131 5.589 2.878 8.215 0.773 1.161 1.65 2.477 1.816 3.166 0.44 1.824 0.302 3.212-0.412 4.128-1.146 1.472-3.523 1.522-3.573 1.523-0.893 0.005-1.613 0.728-1.613 1.619 0 0.895 0.726 1.622 1.621 1.622 0.16 0 3.964-0.032 6.103-2.748 1.366-1.736 1.712-4.059 1.025-6.904-0.301-1.248-1.213-2.617-2.269-4.202-1.074-1.614-2.667-4.005-2.537-5.214 0.753-0.002 2.598 0.612 3.735 1.008 1.452 0.507 2.854 0.983 4.098 1.118-0.503 1.306-1.022 2.982-0.851 5.109 0.184 2.303 2.377 10.268 5.875 13.284-0.439 1.442-3 3.322-7.633 5.605-0.859 0.423-1.253 0.618-1.528 0.827-0.111 0.084-0.238 0.122-0.347 0.099-0.161-0.034-0.348-0.22-0.514-0.506-0.113-0.2-0.188-0.626-0.259-1.041-0.239-1.389-0.737-4.276-4.975-4.276-2.225 0-4.078 2.041-5.533 4.625 0.641-13.95 1.787-31.345 2.062-35.421 1.13 0.485 2.792 1.04 4.497 1.04 0.715 0 1.437-0.098 2.131-0.339 1.52-0.531 2.661-1.68 3.306-3.324 0.325-0.833-0.085-1.772-0.919-2.099-0.831-0.328-1.772 0.085-2.098 0.918-0.396 1.006-0.962 1.306-1.354 1.444-1.502 0.525-3.84-0.376-4.952-0.929C55.391 12.26 56.772 9.178 59.477 8.07zM6.177 45.289c1.595-4.201 4.621-6.776 6.084-7.83 0.174-0.017 0.339-0.069 0.498-0.139 0.696 0.139 1.536 0.204 2.449 0.204 3.103 0 6.965-0.718 8.315-1.562 0.759-0.473 0.99-1.474 0.515-2.232-0.474-0.757-1.472-0.99-2.232-0.515-1.378 0.862-7.533 1.375-8.594 0.926-0.22-0.147-0.461-0.287-0.71-0.43-1.17-0.673-1.943-1.116-1.584-3.618 0.949-6.608 1.374-7.257 7.573-11.57 0.296-0.205 0.953-0.629 1.808-1.18 2.521-1.629 6.741-4.355 8.66-5.967 3.221-2.705 8.864-4.343 11.395-3.305 2.726 1.118 4.099 4.19 4.756 6.412-1.097 0.555-3.43 1.467-4.952 0.935-0.394-0.138-0.961-0.437-1.357-1.446-0.325-0.833-1.266-1.246-2.099-0.918-0.833 0.326-1.243 1.266-0.917 2.099 0.643 1.644 1.786 2.794 3.307 3.324 0.691 0.242 1.413 0.339 2.128 0.339 1.703 0 3.364-0.555 4.494-1.04 0.274 4.078 1.419 21.471 2.061 35.419-1.456-2.583-3.307-4.624-5.53-4.624-4.236 0-4.734 2.887-4.973 4.276-0.071 0.413-0.145 0.841-0.259 1.041-0.165 0.286-0.352 0.472-0.514 0.506-0.102 0.023-0.232-0.015-0.343-0.099-0.277-0.209-0.669-0.404-1.529-0.827-4.633-2.283-7.19-4.165-7.629-5.606 3.495-3.017 5.689-10.979 5.873-13.283 0.169-2.127-0.348-3.803-0.851-5.109 1.244-0.135 2.644-0.611 4.095-1.118 1.137-0.396 2.986-1.004 3.732-1.008 0.129 1.209-1.462 3.601-2.536 5.214-1.054 1.585-1.965 2.954-2.267 4.202-0.687 2.846-0.341 5.168 1.026 6.906 2.138 2.714 5.939 2.746 6.1 2.746 0.895 0 1.62-0.727 1.62-1.622 0-0.894-0.726-1.619-1.62-1.619-0.023 0-2.417-0.064-3.554-1.51-0.721-0.917-0.864-2.31-0.422-4.14 0.167-0.691 1.042-2.006 1.814-3.167 1.747-2.626 3.727-5.601 2.877-8.215-0.246-0.755-0.74-1.336-1.432-1.679-1.657-0.823-3.965-0.019-6.407 0.833-0.881 0.307-2.186 0.76-3.063 0.929 0.152-0.143 0.304-0.278 0.43-0.393 0.768-0.691 1.638-1.473 2.16-2.517 1.967-3.934-1.398-7.187-3.453-8.357-0.775-0.441-1.757-0.171-2.204 0.602-0.444 0.773-0.178 1.762 0.594 2.21 0.134 0.077 3.252 1.919 2.164 4.095-0.246 0.494-0.847 1.035-1.428 1.557-1.139 1.022-2.554 2.295-2.258 4.217 0.126 0.812 0.428 1.558 0.748 2.348 0.514 1.266 1.044 2.574 0.904 4.338-0.264 3.321-3.125 10.067-4.899 11.269-0.102 0.041-0.2 0.091-0.292 0.149-0.069 0.023-0.141 0.056-0.207 0.056-3.222 0-9.07-2.359-10.19-5.264-0.321-0.835-1.26-1.25-2.094-0.929-0.835 0.322-1.251 1.26-0.93 2.095 1.818 4.715 9.252 7.223 12.966 7.329 1.1 2.991 5.053 5.259 7.99 6.745 1.179 1.203 2.901 3.634 2.076 4.527-0.101 0.109-0.515 0.164-0.954 0.219-1.047 0.136-2.577 0.345-4.167 1.726-0.256-0.672-0.495-1.325-0.713-1.922-0.505-1.379-0.981-2.682-1.447-3.686-1.295-2.792-3.146-4.405-5.5-4.798-4.741-0.786-9.394 3.896-9.909 4.435-0.618 0.646-0.596 1.671 0.049 2.29s1.672 0.598 2.291-0.049c0.996-1.041 4.431-3.928 7.037-3.479 1.251 0.208 2.264 1.177 3.093 2.965 0.409 0.88 0.862 2.12 1.342 3.435 0.227 0.62 0.458 1.249 0.695 1.88-0.958-0.345-2.017-0.574-3.135-0.574-4.295 0-4.775 3.204-5.062 5.119-0.311 2.072-0.519 2.842-2.328 3.052-1.347-0.792-4.681-6.784-7.392-13.314-0.081-0.197-0.199-0.367-0.339-0.51-0.007-0.995-0.375-2.038-0.817-3.229C5.946 51.559 4.882 48.7 6.177 45.289zM45.426 82.145c-1.407 1.285-2.887 1.833-4.511 1.67-4.403-0.434-8.387-5.748-8.465-5.854-0.529-0.722-1.543-0.877-2.263-0.349-0.723 0.528-0.878 1.542-0.35 2.264 0.197 0.269 4.882 6.578 10.748 7.164 0.3 0.029 0.597 0.044 0.89 0.044 0.702 0 1.385-0.095 2.052-0.264-0.682 0.766-1.699 1.539-3.234 2.15l-0.26 0.104c-3.711 1.482-6.643 2.652-11.292 0.521-2.468-1.131-2.852-2.764-3.336-4.83-0.423-1.808-0.903-3.854-2.993-5.188-2.974-1.899-5.626-1.699-7.757-1.539-2.195 0.166-3.515 0.267-4.976-1.559-6.767-8.459-3.86-12.601-3.754-12.747l0.265-0.472c0.015-0.043 0.135-0.382 0.301-0.9 3.539 7.837 6.49 11.803 8.792 11.803 0.061 0 0.121-0.004 0.18-0.008 4.612-0.424 5.119-3.801 5.42-5.817 0.31-2.063 0.447-2.36 1.858-2.36 2.441 0 4.658 1.769 5.412 2.44 1.143 2.021 2.521 3.605 4.304 4.168 2.47 0.778 3.717 0.577 5.296 0.324 0.234-0.037 0.481-0.077 0.749-0.116 1.254-0.186 2.192 0.011 2.873 0.594 1.149 0.983 1.417 2.977 1.423 3.654 0 0.894 0.725 1.619 1.62 1.619 0.895 0 1.62-0.726 1.62-1.619 0-0.401-0.072-3.969-2.536-6.098-0.974-0.842-2.715-1.762-5.47-1.357-0.285 0.043-0.547 0.085-0.795 0.124-1.422 0.229-2.068 0.334-3.806-0.215-0.904-0.285-1.766-1.404-2.554-2.854l0.036-0.03c-0.03-0.043-0.723-1.069-0.165-1.643 0.982-1.01 1.811-1.117 2.769-1.24 0.902-0.116 2.022-0.262 2.922-1.237 1.335-1.447 1.277-3.234 0.619-4.919 0.031-0.005 0.062-0.003 0.093-0.008 1.087-0.227 2.036-0.962 2.67-2.072 0.398-0.693 0.526-1.439 0.64-2.099 0.232-1.343 0.273-1.586 1.78-1.586 1.685 0 4.465 5.959 5.907 11.427 0.047 1.844 0.069 3.464 0.059 4.779-0.012 1.528 0.02 2.896 0.047 4.102C48.371 77.279 48.418 79.414 45.426 82.145zM90.165 76.48c-1.463 1.826-2.785 1.725-4.979 1.559-2.131-0.161-4.784-0.361-7.76 1.538-2.093 1.334-2.571 3.381-2.995 5.188-0.484 2.067-0.868 3.7-3.339 4.831-4.651 2.135-7.585 0.961-11.298-0.522l-0.259-0.104c-1.537-0.611-2.554-1.385-3.236-2.15 0.667 0.169 1.352 0.264 2.055 0.264 0.293 0 0.59-0.015 0.89-0.044 5.868-0.586 10.556-6.896 10.752-7.163 0.528-0.722 0.373-1.736-0.348-2.265-0.723-0.526-1.737-0.373-2.266 0.349-1.102 1.504-4.77 5.486-8.461 5.854-1.638 0.17-3.111-0.382-4.521-1.669-2.996-2.73-2.947-4.865-2.83-10.026 0.027-1.207 0.058-2.574 0.046-4.103-0.009-1.316 0.013-2.937 0.06-4.78 1.439-5.468 4.22-11.426 5.91-11.426 1.508 0 1.549 0.243 1.781 1.588 0.113 0.657 0.241 1.403 0.64 2.097 0.634 1.11 1.582 1.845 2.669 2.072 0.032 0.005 0.063 0.003 0.095 0.008-0.659 1.685-0.717 3.472 0.62 4.919 0.901 0.976 2.021 1.121 2.922 1.237 0.96 0.123 1.789 0.23 2.772 1.24 0.558 0.573-0.136 1.6-0.155 1.631l0.034 0.029c-0.79 1.456-1.655 2.579-2.562 2.866-1.74 0.549-2.388 0.444-3.81 0.215-0.248-0.039-0.51-0.081-0.795-0.124-2.758-0.401-4.499 0.516-5.473 1.358-2.464 2.129-2.535 5.695-2.535 6.097 0 0.894 0.726 1.619 1.62 1.619s1.62-0.726 1.62-1.619c0-0.63 0.261-2.648 1.414-3.646 0.682-0.588 1.623-0.79 2.884-0.602 0.269 0.039 0.517 0.079 0.75 0.116 1.582 0.255 2.828 0.454 5.298-0.324 1.787-0.562 3.162-2.146 4.307-4.168 0.759-0.677 2.974-2.44 5.413-2.44 1.412 0 1.551 0.297 1.86 2.36 0.303 2.018 0.81 5.394 5.422 5.817 0.061 0.004 0.12 0.008 0.18 0.008 2.305-0.001 5.257-3.967 8.798-11.805 0.166 0.521 0.287 0.859 0.302 0.902l0.265 0.472C93.953 63.773 96.967 67.982 90.165 76.48z" data-fill-palette-color="accent"></path><path fill="#bb84e8" d="M83.18 30.547c0.114 0.024 0.229 0.036 0.34 0.036 0.748 0 1.421-0.522 1.583-1.283 0.187-0.875-0.372-1.736-1.246-1.922-1.028-0.219-4.268-1.146-5.618-2.49-1.52-1.509-0.958-4.751-0.616-5.869 0.268-0.855-0.209-1.764-1.062-2.03-0.85-0.263-1.763 0.208-2.03 1.062-0.076 0.241-1.804 5.926 1.423 9.135C78.221 29.439 82.68 30.44 83.18 30.547z" data-fill-palette-color="accent"></path></g></svg></g></svg></g></svg></g><defs></defs></svg><rect width="395.52" height="80.46473388356776" fill="none" stroke="none" visibility="hidden"></rect></g></svg></g></svg>