<svg xmlns="http://www.w3.org/2000/svg" version="1.1" xmlns:xlink="http://www.w3.org/1999/xlink" xmlns:svgjs="http://svgjs.dev/svgjs" viewBox="0 0 800 800" opacity="0.42" width="800" height="800"><g stroke-width="8.25" stroke="hsla(261, 10%, 13%, 0.79)" fill="none"><rect width="29.473684210526315" height="29.473684210526315" x="-14.736842105263158" y="-14.736842105263158" transform="rotate(45, 0, 0)"></rect><rect width="29.473684210526315" height="29.473684210526315" x="57.990430622009576" y="-14.736842105263158" transform="rotate(45, 72.72727272727273, 0)"></rect><rect width="29.473684210526315" height="29.473684210526315" x="130.71770334928232" y="-14.736842105263158" transform="rotate(45, 145.45454545454547, 0)"></rect><rect width="29.473684210526315" height="29.473684210526315" x="203.44497607655504" y="-14.736842105263158" transform="rotate(45, 218.1818181818182, 0)"></rect><rect width="29.473684210526315" height="29.473684210526315" x="276.17224880382776" y="-14.736842105263158" transform="rotate(45, 290.90909090909093, 0)"></rect><rect width="29.473684210526315" height="29.473684210526315" x="348.8995215311005" y="-14.736842105263158" transform="rotate(45, 363.6363636363637, 0)"></rect><rect width="29.473684210526315" height="29.473684210526315" x="421.62679425837325" y="-14.736842105263158" transform="rotate(45, 436.36363636363643, 0)"></rect><rect width="29.473684210526315" height="29.473684210526315" x="494.354066985646" y="-14.736842105263158" transform="rotate(45, 509.0909090909092, 0)"></rect><rect width="29.473684210526315" height="29.473684210526315" x="567.0813397129187" y="-14.736842105263158" transform="rotate(45, 581.8181818181819, 0)"></rect><rect width="29.473684210526315" height="29.473684210526315" x="639.8086124401915" y="-14.736842105263158" transform="rotate(45, 654.5454545454546, 0)"></rect><rect width="29.473684210526315" height="29.473684210526315" x="712.5358851674642" y="-14.736842105263158" transform="rotate(45, 727.2727272727274, 0)"></rect><rect width="29.473684210526315" height="29.473684210526315" x="785.263157894737" y="-14.736842105263158" transform="rotate(45, 800.0000000000001, 0)"></rect><rect width="29.473684210526315" height="29.473684210526315" x="-14.736842105263158" y="51.929824561403514" transform="rotate(45, 0, 66.66666666666667)"></rect><rect width="29.473684210526315" height="29.473684210526315" x="57.990430622009576" y="51.929824561403514" fill="hsla(261, 10%, 13%, 0.79)" stroke="none" transform="rotate(45, 72.72727272727273, 66.66666666666667)"></rect><rect width="29.473684210526315" height="29.473684210526315" x="130.71770334928232" y="51.929824561403514" transform="rotate(45, 145.45454545454547, 66.66666666666667)"></rect><rect width="29.473684210526315" height="29.473684210526315" x="203.44497607655504" y="51.929824561403514" transform="rotate(45, 218.1818181818182, 66.66666666666667)"></rect><rect width="29.473684210526315" height="29.473684210526315" x="276.17224880382776" y="51.929824561403514" transform="rotate(45, 290.90909090909093, 66.66666666666667)"></rect><rect width="29.473684210526315" height="29.473684210526315" x="348.8995215311005" y="51.929824561403514" transform="rotate(45, 363.6363636363637, 66.66666666666667)"></rect><rect width="29.473684210526315" height="29.473684210526315" x="421.62679425837325" y="51.929824561403514" transform="rotate(45, 436.36363636363643, 66.66666666666667)"></rect><rect width="29.473684210526315" height="29.473684210526315" x="494.354066985646" y="51.929824561403514" fill="hsla(261, 10%, 13%, 0.79)" stroke="none" transform="rotate(45, 509.0909090909092, 66.66666666666667)"></rect><rect width="29.473684210526315" height="29.473684210526315" x="567.0813397129187" y="51.929824561403514" transform="rotate(45, 581.8181818181819, 66.66666666666667)"></rect><rect width="29.473684210526315" height="29.473684210526315" x="639.8086124401915" y="51.929824561403514" transform="rotate(45, 654.5454545454546, 66.66666666666667)"></rect><rect width="29.473684210526315" height="29.473684210526315" x="712.5358851674642" y="51.929824561403514" fill="hsla(261, 10%, 13%, 0.79)" stroke="none" transform="rotate(45, 727.2727272727274, 66.66666666666667)"></rect><rect width="29.473684210526315" height="29.473684210526315" x="785.263157894737" y="51.929824561403514" transform="rotate(45, 800.0000000000001, 66.66666666666667)"></rect><rect width="29.473684210526315" height="29.473684210526315" x="-14.736842105263158" y="118.59649122807019" transform="rotate(45, 0, 133.33333333333334)"></rect><rect width="29.473684210526315" height="29.473684210526315" x="57.990430622009576" y="118.59649122807019" transform="rotate(45, 72.72727272727273, 133.33333333333334)"></rect><rect width="29.473684210526315" height="29.473684210526315" x="130.71770334928232" y="118.59649122807019" fill="hsla(261, 10%, 13%, 0.79)" stroke="none" transform="rotate(45, 145.45454545454547, 133.33333333333334)"></rect><rect width="29.473684210526315" height="29.473684210526315" x="203.44497607655504" y="118.59649122807019" transform="rotate(45, 218.1818181818182, 133.33333333333334)"></rect><rect width="29.473684210526315" height="29.473684210526315" x="276.17224880382776" y="118.59649122807019" transform="rotate(45, 290.90909090909093, 133.33333333333334)"></rect><rect width="29.473684210526315" height="29.473684210526315" x="348.8995215311005" y="118.59649122807019" transform="rotate(45, 363.6363636363637, 133.33333333333334)"></rect><rect width="29.473684210526315" height="29.473684210526315" x="421.62679425837325" y="118.59649122807019" transform="rotate(45, 436.36363636363643, 133.33333333333334)"></rect><rect width="29.473684210526315" height="29.473684210526315" x="494.354066985646" y="118.59649122807019" fill="hsla(261, 10%, 13%, 0.79)" stroke="none" transform="rotate(45, 509.0909090909092, 133.33333333333334)"></rect><rect width="29.473684210526315" height="29.473684210526315" x="567.0813397129187" y="118.59649122807019" transform="rotate(45, 581.8181818181819, 133.33333333333334)"></rect><rect width="29.473684210526315" height="29.473684210526315" x="639.8086124401915" y="118.59649122807019" fill="hsla(261, 10%, 13%, 0.79)" stroke="none" transform="rotate(45, 654.5454545454546, 133.33333333333334)"></rect><rect width="29.473684210526315" height="29.473684210526315" x="712.5358851674642" y="118.59649122807019" transform="rotate(45, 727.2727272727274, 133.33333333333334)"></rect><rect width="29.473684210526315" height="29.473684210526315" x="785.263157894737" y="118.59649122807019" transform="rotate(45, 800.0000000000001, 133.33333333333334)"></rect><rect width="29.473684210526315" height="29.473684210526315" x="-14.736842105263158" y="185.26315789473685" transform="rotate(45, 0, 200)"></rect><rect width="29.473684210526315" height="29.473684210526315" x="57.990430622009576" y="185.26315789473685" transform="rotate(45, 72.72727272727273, 200)"></rect><rect width="29.473684210526315" height="29.473684210526315" x="130.71770334928232" y="185.26315789473685" transform="rotate(45, 145.45454545454547, 200)"></rect><rect width="29.473684210526315" height="29.473684210526315" x="203.44497607655504" y="185.26315789473685" transform="rotate(45, 218.1818181818182, 200)"></rect><rect width="29.473684210526315" height="29.473684210526315" x="276.17224880382776" y="185.26315789473685" fill="hsla(261, 10%, 13%, 0.79)" stroke="none" transform="rotate(45, 290.90909090909093, 200)"></rect><rect width="29.473684210526315" height="29.473684210526315" x="348.8995215311005" y="185.26315789473685" fill="hsla(261, 10%, 13%, 0.79)" stroke="none" transform="rotate(45, 363.6363636363637, 200)"></rect><rect width="29.473684210526315" height="29.473684210526315" x="421.62679425837325" y="185.26315789473685" fill="hsla(261, 10%, 13%, 0.79)" stroke="none" transform="rotate(45, 436.36363636363643, 200)"></rect><rect width="29.473684210526315" height="29.473684210526315" x="494.354066985646" y="185.26315789473685" transform="rotate(45, 509.0909090909092, 200)"></rect><rect width="29.473684210526315" height="29.473684210526315" x="567.0813397129187" y="185.26315789473685" fill="hsla(261, 10%, 13%, 0.79)" stroke="none" transform="rotate(45, 581.8181818181819, 200)"></rect><rect width="29.473684210526315" height="29.473684210526315" x="639.8086124401915" y="185.26315789473685" fill="hsla(261, 10%, 13%, 0.79)" stroke="none" transform="rotate(45, 654.5454545454546, 200)"></rect><rect width="29.473684210526315" height="29.473684210526315" x="712.5358851674642" y="185.26315789473685" fill="hsla(261, 10%, 13%, 0.79)" stroke="none" transform="rotate(45, 727.2727272727274, 200)"></rect><rect width="29.473684210526315" height="29.473684210526315" x="785.263157894737" y="185.26315789473685" transform="rotate(45, 800.0000000000001, 200)"></rect><rect width="29.473684210526315" height="29.473684210526315" x="-14.736842105263158" y="251.92982456140354" transform="rotate(45, 0, 266.6666666666667)"></rect><rect width="29.473684210526315" height="29.473684210526315" x="57.990430622009576" y="251.92982456140354" transform="rotate(45, 72.72727272727273, 266.6666666666667)"></rect><rect width="29.473684210526315" height="29.473684210526315" x="130.71770334928232" y="251.92982456140354" transform="rotate(45, 145.45454545454547, 266.6666666666667)"></rect><rect width="29.473684210526315" height="29.473684210526315" x="203.44497607655504" y="251.92982456140354" fill="hsla(261, 10%, 13%, 0.79)" stroke="none" transform="rotate(45, 218.1818181818182, 266.6666666666667)"></rect><rect width="29.473684210526315" height="29.473684210526315" x="276.17224880382776" y="251.92982456140354" transform="rotate(45, 290.90909090909093, 266.6666666666667)"></rect><rect width="29.473684210526315" height="29.473684210526315" x="348.8995215311005" y="251.92982456140354" transform="rotate(45, 363.6363636363637, 266.6666666666667)"></rect><rect width="29.473684210526315" height="29.473684210526315" x="421.62679425837325" y="251.92982456140354" transform="rotate(45, 436.36363636363643, 266.6666666666667)"></rect><rect width="29.473684210526315" height="29.473684210526315" x="494.354066985646" y="251.92982456140354" fill="hsla(261, 10%, 13%, 0.79)" stroke="none" transform="rotate(45, 509.0909090909092, 266.6666666666667)"></rect><rect width="29.473684210526315" height="29.473684210526315" x="567.0813397129187" y="251.92982456140354" fill="hsla(261, 10%, 13%, 0.79)" stroke="none" transform="rotate(45, 581.8181818181819, 266.6666666666667)"></rect><rect width="29.473684210526315" height="29.473684210526315" x="639.8086124401915" y="251.92982456140354" fill="hsla(261, 10%, 13%, 0.79)" stroke="none" transform="rotate(45, 654.5454545454546, 266.6666666666667)"></rect><rect width="29.473684210526315" height="29.473684210526315" x="712.5358851674642" y="251.92982456140354" transform="rotate(45, 727.2727272727274, 266.6666666666667)"></rect><rect width="29.473684210526315" height="29.473684210526315" x="785.263157894737" y="251.92982456140354" transform="rotate(45, 800.0000000000001, 266.6666666666667)"></rect><rect width="29.473684210526315" height="29.473684210526315" x="-14.736842105263158" y="318.5964912280702" transform="rotate(45, 0, 333.33333333333337)"></rect><rect width="29.473684210526315" height="29.473684210526315" x="57.990430622009576" y="318.5964912280702" transform="rotate(45, 72.72727272727273, 333.33333333333337)"></rect><rect width="29.473684210526315" height="29.473684210526315" x="130.71770334928232" y="318.5964912280702" transform="rotate(45, 145.45454545454547, 333.33333333333337)"></rect><rect width="29.473684210526315" height="29.473684210526315" x="203.44497607655504" y="318.5964912280702" transform="rotate(45, 218.1818181818182, 333.33333333333337)"></rect><rect width="29.473684210526315" height="29.473684210526315" x="276.17224880382776" y="318.5964912280702" transform="rotate(45, 290.90909090909093, 333.33333333333337)"></rect><rect width="29.473684210526315" height="29.473684210526315" x="348.8995215311005" y="318.5964912280702" transform="rotate(45, 363.6363636363637, 333.33333333333337)"></rect><rect width="29.473684210526315" height="29.473684210526315" x="421.62679425837325" y="318.5964912280702" transform="rotate(45, 436.36363636363643, 333.33333333333337)"></rect><rect width="29.473684210526315" height="29.473684210526315" x="494.354066985646" y="318.5964912280702" transform="rotate(45, 509.0909090909092, 333.33333333333337)"></rect><rect width="29.473684210526315" height="29.473684210526315" x="567.0813397129187" y="318.5964912280702" transform="rotate(45, 581.8181818181819, 333.33333333333337)"></rect><rect width="29.473684210526315" height="29.473684210526315" x="639.8086124401915" y="318.5964912280702" transform="rotate(45, 654.5454545454546, 333.33333333333337)"></rect><rect width="29.473684210526315" height="29.473684210526315" x="712.5358851674642" y="318.5964912280702" transform="rotate(45, 727.2727272727274, 333.33333333333337)"></rect><rect width="29.473684210526315" height="29.473684210526315" x="785.263157894737" y="318.5964912280702" transform="rotate(45, 800.0000000000001, 333.33333333333337)"></rect><rect width="29.473684210526315" height="29.473684210526315" x="-14.736842105263158" y="385.2631578947369" transform="rotate(45, 0, 400.00000000000006)"></rect><rect width="29.473684210526315" height="29.473684210526315" x="57.990430622009576" y="385.2631578947369" transform="rotate(45, 72.72727272727273, 400.00000000000006)"></rect><rect width="29.473684210526315" height="29.473684210526315" x="130.71770334928232" y="385.2631578947369" transform="rotate(45, 145.45454545454547, 400.00000000000006)"></rect><rect width="29.473684210526315" height="29.473684210526315" x="203.44497607655504" y="385.2631578947369" fill="hsla(261, 10%, 13%, 0.79)" stroke="none" transform="rotate(45, 218.1818181818182, 400.00000000000006)"></rect><rect width="29.473684210526315" height="29.473684210526315" x="276.17224880382776" y="385.2631578947369" fill="hsla(261, 10%, 13%, 0.79)" stroke="none" transform="rotate(45, 290.90909090909093, 400.00000000000006)"></rect><rect width="29.473684210526315" height="29.473684210526315" x="348.8995215311005" y="385.2631578947369" transform="rotate(45, 363.6363636363637, 400.00000000000006)"></rect><rect width="29.473684210526315" height="29.473684210526315" x="421.62679425837325" y="385.2631578947369" transform="rotate(45, 436.36363636363643, 400.00000000000006)"></rect><rect width="29.473684210526315" height="29.473684210526315" x="494.354066985646" y="385.2631578947369" transform="rotate(45, 509.0909090909092, 400.00000000000006)"></rect><rect width="29.473684210526315" height="29.473684210526315" x="567.0813397129187" y="385.2631578947369" transform="rotate(45, 581.8181818181819, 400.00000000000006)"></rect><rect width="29.473684210526315" height="29.473684210526315" x="639.8086124401915" y="385.2631578947369" transform="rotate(45, 654.5454545454546, 400.00000000000006)"></rect><rect width="29.473684210526315" height="29.473684210526315" x="712.5358851674642" y="385.2631578947369" transform="rotate(45, 727.2727272727274, 400.00000000000006)"></rect><rect width="29.473684210526315" height="29.473684210526315" x="785.263157894737" y="385.2631578947369" transform="rotate(45, 800.0000000000001, 400.00000000000006)"></rect><rect width="29.473684210526315" height="29.473684210526315" x="-14.736842105263158" y="451.92982456140356" transform="rotate(45, 0, 466.66666666666674)"></rect><rect width="29.473684210526315" height="29.473684210526315" x="57.990430622009576" y="451.92982456140356" transform="rotate(45, 72.72727272727273, 466.66666666666674)"></rect><rect width="29.473684210526315" height="29.473684210526315" x="130.71770334928232" y="451.92982456140356" fill="hsla(261, 10%, 13%, 0.79)" stroke="none" transform="rotate(45, 145.45454545454547, 466.66666666666674)"></rect><rect width="29.473684210526315" height="29.473684210526315" x="203.44497607655504" y="451.92982456140356" transform="rotate(45, 218.1818181818182, 466.66666666666674)"></rect><rect width="29.473684210526315" height="29.473684210526315" x="276.17224880382776" y="451.92982456140356" transform="rotate(45, 290.90909090909093, 466.66666666666674)"></rect><rect width="29.473684210526315" height="29.473684210526315" x="348.8995215311005" y="451.92982456140356" transform="rotate(45, 363.6363636363637, 466.66666666666674)"></rect><rect width="29.473684210526315" height="29.473684210526315" x="421.62679425837325" y="451.92982456140356" transform="rotate(45, 436.36363636363643, 466.66666666666674)"></rect><rect width="29.473684210526315" height="29.473684210526315" x="494.354066985646" y="451.92982456140356" transform="rotate(45, 509.0909090909092, 466.66666666666674)"></rect><rect width="29.473684210526315" height="29.473684210526315" x="567.0813397129187" y="451.92982456140356" fill="hsla(261, 10%, 13%, 0.79)" stroke="none" transform="rotate(45, 581.8181818181819, 466.66666666666674)"></rect><rect width="29.473684210526315" height="29.473684210526315" x="639.8086124401915" y="451.92982456140356" transform="rotate(45, 654.5454545454546, 466.66666666666674)"></rect><rect width="29.473684210526315" height="29.473684210526315" x="712.5358851674642" y="451.92982456140356" transform="rotate(45, 727.2727272727274, 466.66666666666674)"></rect><rect width="29.473684210526315" height="29.473684210526315" x="785.263157894737" y="451.92982456140356" transform="rotate(45, 800.0000000000001, 466.66666666666674)"></rect><rect width="29.473684210526315" height="29.473684210526315" x="-14.736842105263158" y="518.5964912280702" transform="rotate(45, 0, 533.3333333333334)"></rect><rect width="29.473684210526315" height="29.473684210526315" x="57.990430622009576" y="518.5964912280702" transform="rotate(45, 72.72727272727273, 533.3333333333334)"></rect><rect width="29.473684210526315" height="29.473684210526315" x="130.71770334928232" y="518.5964912280702" transform="rotate(45, 145.45454545454547, 533.3333333333334)"></rect><rect width="29.473684210526315" height="29.473684210526315" x="203.44497607655504" y="518.5964912280702" fill="hsla(261, 10%, 13%, 0.79)" stroke="none" transform="rotate(45, 218.1818181818182, 533.3333333333334)"></rect><rect width="29.473684210526315" height="29.473684210526315" x="276.17224880382776" y="518.5964912280702" transform="rotate(45, 290.90909090909093, 533.3333333333334)"></rect><rect width="29.473684210526315" height="29.473684210526315" x="348.8995215311005" y="518.5964912280702" transform="rotate(45, 363.6363636363637, 533.3333333333334)"></rect><rect width="29.473684210526315" height="29.473684210526315" x="421.62679425837325" y="518.5964912280702" transform="rotate(45, 436.36363636363643, 533.3333333333334)"></rect><rect width="29.473684210526315" height="29.473684210526315" x="494.354066985646" y="518.5964912280702" transform="rotate(45, 509.0909090909092, 533.3333333333334)"></rect><rect width="29.473684210526315" height="29.473684210526315" x="567.0813397129187" y="518.5964912280702" transform="rotate(45, 581.8181818181819, 533.3333333333334)"></rect><rect width="29.473684210526315" height="29.473684210526315" x="639.8086124401915" y="518.5964912280702" transform="rotate(45, 654.5454545454546, 533.3333333333334)"></rect><rect width="29.473684210526315" height="29.473684210526315" x="712.5358851674642" y="518.5964912280702" fill="hsla(261, 10%, 13%, 0.79)" stroke="none" transform="rotate(45, 727.2727272727274, 533.3333333333334)"></rect><rect width="29.473684210526315" height="29.473684210526315" x="785.263157894737" y="518.5964912280702" transform="rotate(45, 800.0000000000001, 533.3333333333334)"></rect><rect width="29.473684210526315" height="29.473684210526315" x="-14.736842105263158" y="585.2631578947369" transform="rotate(45, 0, 600)"></rect><rect width="29.473684210526315" height="29.473684210526315" x="57.990430622009576" y="585.2631578947369" transform="rotate(45, 72.72727272727273, 600)"></rect><rect width="29.473684210526315" height="29.473684210526315" x="130.71770334928232" y="585.2631578947369" transform="rotate(45, 145.45454545454547, 600)"></rect><rect width="29.473684210526315" height="29.473684210526315" x="203.44497607655504" y="585.2631578947369" transform="rotate(45, 218.1818181818182, 600)"></rect><rect width="29.473684210526315" height="29.473684210526315" x="276.17224880382776" y="585.2631578947369" fill="hsla(261, 10%, 13%, 0.79)" stroke="none" transform="rotate(45, 290.90909090909093, 600)"></rect><rect width="29.473684210526315" height="29.473684210526315" x="348.8995215311005" y="585.2631578947369" fill="hsla(261, 10%, 13%, 0.79)" stroke="none" transform="rotate(45, 363.6363636363637, 600)"></rect><rect width="29.473684210526315" height="29.473684210526315" x="421.62679425837325" y="585.2631578947369" transform="rotate(45, 436.36363636363643, 600)"></rect><rect width="29.473684210526315" height="29.473684210526315" x="494.354066985646" y="585.2631578947369" transform="rotate(45, 509.0909090909092, 600)"></rect><rect width="29.473684210526315" height="29.473684210526315" x="567.0813397129187" y="585.2631578947369" transform="rotate(45, 581.8181818181819, 600)"></rect><rect width="29.473684210526315" height="29.473684210526315" x="639.8086124401915" y="585.2631578947369" transform="rotate(45, 654.5454545454546, 600)"></rect><rect width="29.473684210526315" height="29.473684210526315" x="712.5358851674642" y="585.2631578947369" transform="rotate(45, 727.2727272727274, 600)"></rect><rect width="29.473684210526315" height="29.473684210526315" x="785.263157894737" y="585.2631578947369" transform="rotate(45, 800.0000000000001, 600)"></rect><rect width="29.473684210526315" height="29.473684210526315" x="-14.736842105263158" y="651.9298245614035" transform="rotate(45, 0, 666.6666666666666)"></rect><rect width="29.473684210526315" height="29.473684210526315" x="57.990430622009576" y="651.9298245614035" fill="hsla(261, 10%, 13%, 0.79)" stroke="none" transform="rotate(45, 72.72727272727273, 666.6666666666666)"></rect><rect width="29.473684210526315" height="29.473684210526315" x="130.71770334928232" y="651.9298245614035" transform="rotate(45, 145.45454545454547, 666.6666666666666)"></rect><rect width="29.473684210526315" height="29.473684210526315" x="203.44497607655504" y="651.9298245614035" transform="rotate(45, 218.1818181818182, 666.6666666666666)"></rect><rect width="29.473684210526315" height="29.473684210526315" x="276.17224880382776" y="651.9298245614035" fill="hsla(261, 10%, 13%, 0.79)" stroke="none" transform="rotate(45, 290.90909090909093, 666.6666666666666)"></rect><rect width="29.473684210526315" height="29.473684210526315" x="348.8995215311005" y="651.9298245614035" transform="rotate(45, 363.6363636363637, 666.6666666666666)"></rect><rect width="29.473684210526315" height="29.473684210526315" x="421.62679425837325" y="651.9298245614035" transform="rotate(45, 436.36363636363643, 666.6666666666666)"></rect><rect width="29.473684210526315" height="29.473684210526315" x="494.354066985646" y="651.9298245614035" transform="rotate(45, 509.0909090909092, 666.6666666666666)"></rect><rect width="29.473684210526315" height="29.473684210526315" x="567.0813397129187" y="651.9298245614035" fill="hsla(261, 10%, 13%, 0.79)" stroke="none" transform="rotate(45, 581.8181818181819, 666.6666666666666)"></rect><rect width="29.473684210526315" height="29.473684210526315" x="639.8086124401915" y="651.9298245614035" transform="rotate(45, 654.5454545454546, 666.6666666666666)"></rect><rect width="29.473684210526315" height="29.473684210526315" x="712.5358851674642" y="651.9298245614035" transform="rotate(45, 727.2727272727274, 666.6666666666666)"></rect><rect width="29.473684210526315" height="29.473684210526315" x="785.263157894737" y="651.9298245614035" transform="rotate(45, 800.0000000000001, 666.6666666666666)"></rect><rect width="29.473684210526315" height="29.473684210526315" x="-14.736842105263158" y="718.5964912280701" transform="rotate(45, 0, 733.3333333333333)"></rect><rect width="29.473684210526315" height="29.473684210526315" x="57.990430622009576" y="718.5964912280701" transform="rotate(45, 72.72727272727273, 733.3333333333333)"></rect><rect width="29.473684210526315" height="29.473684210526315" x="130.71770334928232" y="718.5964912280701" transform="rotate(45, 145.45454545454547, 733.3333333333333)"></rect><rect width="29.473684210526315" height="29.473684210526315" x="203.44497607655504" y="718.5964912280701" transform="rotate(45, 218.1818181818182, 733.3333333333333)"></rect><rect width="29.473684210526315" height="29.473684210526315" x="276.17224880382776" y="718.5964912280701" transform="rotate(45, 290.90909090909093, 733.3333333333333)"></rect><rect width="29.473684210526315" height="29.473684210526315" x="348.8995215311005" y="718.5964912280701" transform="rotate(45, 363.6363636363637, 733.3333333333333)"></rect><rect width="29.473684210526315" height="29.473684210526315" x="421.62679425837325" y="718.5964912280701" transform="rotate(45, 436.36363636363643, 733.3333333333333)"></rect><rect width="29.473684210526315" height="29.473684210526315" x="494.354066985646" y="718.5964912280701" transform="rotate(45, 509.0909090909092, 733.3333333333333)"></rect><rect width="29.473684210526315" height="29.473684210526315" x="567.0813397129187" y="718.5964912280701" transform="rotate(45, 581.8181818181819, 733.3333333333333)"></rect><rect width="29.473684210526315" height="29.473684210526315" x="639.8086124401915" y="718.5964912280701" fill="hsla(261, 10%, 13%, 0.79)" stroke="none" transform="rotate(45, 654.5454545454546, 733.3333333333333)"></rect><rect width="29.473684210526315" height="29.473684210526315" x="712.5358851674642" y="718.5964912280701" transform="rotate(45, 727.2727272727274, 733.3333333333333)"></rect><rect width="29.473684210526315" height="29.473684210526315" x="785.263157894737" y="718.5964912280701" transform="rotate(45, 800.0000000000001, 733.3333333333333)"></rect><rect width="29.473684210526315" height="29.473684210526315" x="-14.736842105263158" y="785.2631578947368" transform="rotate(45, 0, 799.9999999999999)"></rect><rect width="29.473684210526315" height="29.473684210526315" x="57.990430622009576" y="785.2631578947368" transform="rotate(45, 72.72727272727273, 799.9999999999999)"></rect><rect width="29.473684210526315" height="29.473684210526315" x="130.71770334928232" y="785.2631578947368" transform="rotate(45, 145.45454545454547, 799.9999999999999)"></rect><rect width="29.473684210526315" height="29.473684210526315" x="203.44497607655504" y="785.2631578947368" transform="rotate(45, 218.1818181818182, 799.9999999999999)"></rect><rect width="29.473684210526315" height="29.473684210526315" x="276.17224880382776" y="785.2631578947368" transform="rotate(45, 290.90909090909093, 799.9999999999999)"></rect><rect width="29.473684210526315" height="29.473684210526315" x="348.8995215311005" y="785.2631578947368" transform="rotate(45, 363.6363636363637, 799.9999999999999)"></rect><rect width="29.473684210526315" height="29.473684210526315" x="421.62679425837325" y="785.2631578947368" transform="rotate(45, 436.36363636363643, 799.9999999999999)"></rect><rect width="29.473684210526315" height="29.473684210526315" x="494.354066985646" y="785.2631578947368" transform="rotate(45, 509.0909090909092, 799.9999999999999)"></rect><rect width="29.473684210526315" height="29.473684210526315" x="567.0813397129187" y="785.2631578947368" transform="rotate(45, 581.8181818181819, 799.9999999999999)"></rect><rect width="29.473684210526315" height="29.473684210526315" x="639.8086124401915" y="785.2631578947368" transform="rotate(45, 654.5454545454546, 799.9999999999999)"></rect><rect width="29.473684210526315" height="29.473684210526315" x="712.5358851674642" y="785.2631578947368" transform="rotate(45, 727.2727272727274, 799.9999999999999)"></rect><rect width="29.473684210526315" height="29.473684210526315" x="785.263157894737" y="785.2631578947368" transform="rotate(45, 800.0000000000001, 799.9999999999999)"></rect></g></svg>